<?xml version="1.0" encoding="utf-8"?>
<!-- Generator: Adobe Illustrator 25.4.1, SVG Export Plug-In . SVG Version: 6.00 Build 0)  -->
<svg version="1.1" id="Layer_1" xmlns="http://www.w3.org/2000/svg" xmlns:xlink="http://www.w3.org/1999/xlink" x="0px" y="0px"
	 viewBox="0 0 219 43" style="enable-background:new 0 0 219 43;" xml:space="preserve">
<style type="text/css">
	.st0{fill:#305095;}
	.st1{fill:#00A9DF;}
	.st2{fill:#80B541;}
	.st3{fill:#6A953F;}
	.st4{fill:#2E3F7B;}
	.st5{fill:#04A8DD;}
	.st6{fill:#305094;}
	.st7{fill:#BED630;}
	.st8{fill:#80B441;}
	.st9{fill:none;stroke:#305094;stroke-miterlimit:10;}
</style>
<g>
	<path class="st0" d="M61.36,20.12c0.29,0.43,0.44,0.91,0.44,1.45v3.19c0,1.05-0.4,1.95-1.2,2.69c-0.8,0.74-1.77,1.11-2.9,1.11H50.7
		c-0.29,0-0.44-0.14-0.44-0.41V25.6c0-0.27,0.15-0.41,0.44-0.41h5.75c0.65,0,0.97-0.3,0.97-0.9v-1.41c0-0.56-0.26-0.89-0.79-1.02
		l-4.16-0.93c-0.58-0.1-1.08-0.35-1.52-0.75c-0.01-0.02-0.03-0.04-0.06-0.06c-0.15-0.14-0.28-0.29-0.38-0.45
		c-0.29-0.43-0.44-0.91-0.44-1.45v-2.73c0-1.05,0.4-1.95,1.2-2.69c0.8-0.74,1.77-1.11,2.9-1.11h6.62c0.29,0,0.44,0.13,0.44,0.41
		v2.56c0,0.27-0.14,0.41-0.44,0.41h-5.39c-0.65,0-0.97,0.3-0.97,0.9v0.96c0,0.55,0.26,0.89,0.79,1.01l4.16,0.93
		c0.58,0.1,1.09,0.35,1.52,0.75c0.01,0.02,0.04,0.03,0.06,0.06C61.12,19.82,61.25,19.97,61.36,20.12"/>
	<path class="st0" d="M67.98,24.92c0,0.18,0.11,0.27,0.3,0.27h6.42c0.29,0,0.44,0.13,0.44,0.41v2.56c0,0.27-0.14,0.41-0.44,0.41
		h-6.98c-1.14,0-2.1-0.37-2.9-1.11c-0.8-0.74-1.21-1.64-1.21-2.69v-9.27c0-1.05,0.4-1.95,1.21-2.69c0.8-0.74,1.76-1.11,2.9-1.11
		h6.98c0.29,0,0.44,0.13,0.44,0.41v2.56c0,0.27-0.14,0.41-0.44,0.41h-6.42c-0.19,0-0.3,0.09-0.3,0.27V24.92z"/>
	<path class="st1" d="M84.97,24.92c0.01,0.18,0.11,0.27,0.31,0.27h6.68c0.31,0,0.46,0.13,0.46,0.41v2.56c0,0.27-0.15,0.41-0.46,0.41
		h-7.28c-1.18,0-2.18-0.37-3.02-1.11c-0.83-0.74-1.25-1.64-1.25-2.69v-9.27c0-1.05,0.42-1.95,1.25-2.69
		c0.83-0.74,1.84-1.11,3.02-1.11h7.28c0.31,0,0.46,0.13,0.46,0.41v2.56c0,0.27-0.15,0.41-0.46,0.41h-6.68
		c-0.21,0-0.31,0.09-0.31,0.27V24.92z"/>
	<path class="st1" d="M98.86,24.18c0,0.67,0.38,1.01,1.14,1.01h1.08c0.76,0,1.14-0.34,1.14-1.01v-8.11c0-0.67-0.38-1.01-1.14-1.01
		H100c-0.76,0-1.14,0.34-1.14,1.01V24.18z M106.77,24.76c0,1.05-0.42,1.95-1.25,2.69c-0.83,0.74-1.84,1.11-3.02,1.11h-3.91
		c-1.18,0-2.19-0.37-3.02-1.11c-0.83-0.74-1.25-1.64-1.25-2.69v-9.27c0-1.05,0.41-1.95,1.25-2.69c0.83-0.74,1.84-1.11,3.02-1.11
		h3.91c1.18,0,2.19,0.37,3.02,1.11c0.84,0.74,1.25,1.64,1.25,2.69V24.76z"/>
	<path class="st1" d="M113.21,24.92c0,0.18,0.1,0.27,0.3,0.27h2.29c0.59,0,0.89-0.26,0.89-0.79v-8.55c0-0.52-0.3-0.79-0.89-0.79
		h-2.29c-0.2,0-0.3,0.09-0.3,0.27V24.92z M121.23,24.76c0,1.05-0.42,1.95-1.25,2.69c-0.83,0.74-1.84,1.11-3.02,1.11h-7.85
		c-0.3,0-0.45-0.14-0.45-0.41V12.1c0-0.27,0.15-0.4,0.45-0.4h7.85c1.18,0,2.19,0.37,3.02,1.11c0.83,0.74,1.25,1.64,1.25,2.69V24.76z
		"/>
	<path class="st1" d="M123.13,24.76V12.1c0-0.27,0.15-0.4,0.45-0.4h10.46c0.3,0,0.46,0.13,0.46,0.4v2.56c0,0.27-0.15,0.41-0.46,0.41
		h-6.06c-0.2,0-0.3,0.09-0.3,0.27v2.83c0,0.18,0.1,0.27,0.3,0.27h5.05c0.31,0,0.46,0.13,0.46,0.4v2.57c0,0.27-0.15,0.4-0.46,0.4
		h-5.05c-0.2,0-0.3,0.09-0.3,0.27v1.64c0,0.98,0.55,1.46,1.64,1.46h5.04c0.3,0,0.46,0.13,0.46,0.41v2.56c0,0.27-0.15,0.41-0.46,0.41
		h-6.96c-1.18,0-2.19-0.37-3.02-1.11C123.55,26.71,123.13,25.81,123.13,24.76"/>
	<path class="st1" d="M146.83,16.14l-1.94,12.01c-0.06,0.27-0.24,0.41-0.54,0.41h-4.99c-0.31,0-0.48-0.14-0.54-0.41l-2.45-16.06
		c-0.01-0.05-0.02-0.09-0.02-0.13c0-0.19,0.13-0.28,0.38-0.28h3.55c0.31,0,0.48,0.13,0.53,0.4l1.66,12.85l1.89-12.85
		c0.05-0.27,0.23-0.4,0.53-0.4h3.89c0.3,0,0.48,0.13,0.53,0.4l1.89,12.85l1.66-12.85c0.05-0.27,0.22-0.4,0.53-0.4h3.55
		c0.25,0,0.38,0.09,0.38,0.28c0,0.04,0,0.08-0.01,0.13l-2.45,16.06c-0.06,0.27-0.24,0.41-0.54,0.41h-4.99
		c-0.31,0-0.48-0.14-0.54-0.41L146.83,16.14z"/>
	<path class="st1" d="M163.39,24.18c0,0.67,0.38,1.01,1.14,1.01h1.09c0.76,0,1.14-0.34,1.14-1.01v-8.11c0-0.67-0.38-1.01-1.14-1.01
		h-1.09c-0.76,0-1.14,0.34-1.14,1.01V24.18z M171.29,24.76c0,1.05-0.41,1.95-1.25,2.69c-0.83,0.74-1.84,1.11-3.02,1.11h-3.91
		c-1.18,0-2.19-0.37-3.02-1.11c-0.83-0.74-1.25-1.64-1.25-2.69v-9.27c0-1.05,0.41-1.95,1.25-2.69c0.83-0.74,1.84-1.11,3.02-1.11
		h3.91c1.18,0,2.19,0.37,3.02,1.11c0.84,0.74,1.25,1.64,1.25,2.69V24.76z"/>
	<path class="st1" d="M177.74,15.33v2.83c0,0.18,0.1,0.27,0.3,0.27h1.91c0.59,0,0.88-0.26,0.88-0.79v-1.8
		c0-0.52-0.29-0.79-0.88-0.79h-1.91C177.84,15.06,177.74,15.15,177.74,15.33 M184.38,20.12c0.71,0.71,1.06,1.54,1.06,2.51v5.53
		c0,0.27-0.15,0.41-0.46,0.41h-3.7c-0.3,0-0.46-0.14-0.46-0.41v-5.44c0-0.6-0.34-0.9-1.01-0.9H178c-0.17,0-0.25,0.09-0.25,0.27v6.07
		c0,0.27-0.15,0.41-0.46,0.41h-3.64c-0.3,0-0.46-0.14-0.46-0.41V12.1c0-0.27,0.15-0.4,0.46-0.4h7.46c1.18,0,2.19,0.37,3.03,1.11
		c0.83,0.74,1.25,1.64,1.25,2.69v2.16c0,0.94-0.33,1.76-1,2.45V20.12z"/>
	<path class="st1" d="M187.79,28.56c-0.3,0-0.45-0.14-0.45-0.41V12.1c0-0.27,0.15-0.4,0.45-0.4h3.65c0.3,0,0.44,0.13,0.44,0.4v6.07
		c0,0.18,0.1,0.27,0.3,0.27h1.28c0.3,0,0.54-0.19,0.69-0.56l2.64-5.78c0.12-0.27,0.33-0.4,0.64-0.4h3.48c0.22,0,0.33,0.07,0.33,0.21
		c0,0.06-0.01,0.12-0.05,0.19l-2.88,6.32c0.29,0.16,0.56,0.35,0.82,0.58c0.81,0.72,1.21,1.59,1.21,2.61v6.54
		c0,0.27-0.15,0.41-0.45,0.41h-3.64c-0.31,0-0.46-0.14-0.46-0.41v-5.33c0-0.67-0.38-1.01-1.14-1.01h-2.48c-0.2,0-0.3,0.09-0.3,0.27
		v6.07c0,0.27-0.14,0.41-0.44,0.41H187.79z"/>
	<path class="st1" d="M214.57,20.12c0.3,0.43,0.45,0.91,0.45,1.45v3.19c0,1.05-0.42,1.95-1.25,2.69c-0.83,0.74-1.84,1.11-3.02,1.11
		h-7.28c-0.31,0-0.46-0.14-0.46-0.41V25.6c0-0.27,0.15-0.41,0.46-0.41h5.99c0.67,0,1.01-0.3,1.01-0.9v-1.41
		c0-0.56-0.27-0.89-0.82-1.02l-4.33-0.93c-0.59-0.1-1.13-0.35-1.58-0.75c-0.02-0.02-0.04-0.04-0.07-0.06
		c-0.15-0.14-0.28-0.29-0.39-0.45c-0.3-0.43-0.46-0.91-0.46-1.45v-2.73c0-1.05,0.42-1.95,1.26-2.69c0.83-0.74,1.84-1.11,3.02-1.11
		h6.9c0.3,0,0.45,0.13,0.45,0.41v2.56c0,0.27-0.15,0.41-0.45,0.41h-5.61c-0.67,0-1.01,0.3-1.01,0.9v0.96c0,0.55,0.27,0.89,0.82,1.01
		l4.33,0.93c0.6,0.1,1.13,0.35,1.58,0.75c0.02,0.02,0.04,0.03,0.06,0.06C214.32,19.82,214.46,19.97,214.57,20.12"/>
	<path class="st2" d="M213.06,38.33c0.7,0,1.94-0.25,1.94-1.35c0-1.09-1.21-1.28-1.89-1.28c-0.21,0-1.02-0.03-1.02-0.39
		c0-0.52,0.71-0.51,1.01-0.51c0.54,0,0.97,0.18,1.38,0.5l0.37-0.66c-0.44-0.47-0.95-0.7-1.75-0.7c-0.77,0-1.95,0.24-1.95,1.43
		c0,1.16,1.27,1.25,1.96,1.25c0.23,0,0.9,0.03,0.9,0.37c0,0.42-0.74,0.49-0.95,0.49c-0.59,0-0.93-0.15-1.45-0.49l-0.34,0.78
		C211.89,38.19,212.34,38.33,213.06,38.33 M208.49,38.33c0.7,0,1.94-0.25,1.94-1.35c0-1.09-1.21-1.28-1.9-1.28
		c-0.21,0-1.02-0.03-1.02-0.39c0-0.52,0.71-0.51,1.01-0.51c0.54,0,0.97,0.18,1.38,0.5l0.37-0.66c-0.44-0.47-0.95-0.7-1.75-0.7
		c-0.77,0-1.95,0.24-1.95,1.43c0,1.16,1.27,1.25,1.96,1.25c0.23,0,0.9,0.03,0.9,0.37c0,0.42-0.74,0.49-0.95,0.49
		c-0.59,0-0.93-0.15-1.45-0.49l-0.34,0.78C207.32,38.19,207.77,38.33,208.49,38.33 M204.94,35.74h-2.05
		c0.13-0.6,0.53-0.96,1.03-0.96C204.86,34.78,204.94,35.42,204.94,35.74 M203.92,33.94c-1.03,0-2.11,0.73-2.11,2.22
		c0,1.44,1.12,2.18,2.17,2.18c0.68,0,1.43-0.23,1.74-0.59l-0.38-0.63c-0.38,0.25-0.8,0.31-1.33,0.31c-0.62,0-1.17-0.52-1.16-0.92
		h3.05c0.02-0.33,0.02-0.69-0.04-0.99C205.68,34.62,205.11,33.94,203.92,33.94 M198.38,34.52v-0.5h-1v4.26h1v-2.75
		c0.29-0.27,0.69-0.6,1.07-0.6c0.51,0,0.69,0.38,0.69,0.74v2.61h0.99v-2.83c0-0.85-0.69-1.49-1.61-1.49
		C198.99,33.95,198.63,34.25,198.38,34.52 M195.41,38.27h1v-4.26h-1V38.27z M196.49,32.8c0-0.36-0.26-0.64-0.59-0.64
		c-0.3,0-0.58,0.28-0.58,0.64c0,0.37,0.28,0.64,0.58,0.64C196.22,33.44,196.49,33.17,196.49,32.8 M192.81,38.33
		c0.7,0,1.94-0.25,1.94-1.35c0-1.09-1.21-1.28-1.89-1.28c-0.21,0-1.02-0.03-1.02-0.39c0-0.52,0.71-0.51,1.01-0.51
		c0.53,0,0.96,0.18,1.38,0.5l0.37-0.66c-0.44-0.47-0.95-0.7-1.74-0.7c-0.77,0-1.95,0.24-1.95,1.43c0,1.16,1.27,1.25,1.96,1.25
		c0.23,0,0.9,0.03,0.9,0.37c0,0.42-0.74,0.49-0.95,0.49c-0.59,0-0.93-0.15-1.45-0.49l-0.34,0.78
		C191.64,38.19,192.09,38.33,192.81,38.33 M189.29,37.81L189.29,37.81l0.11,0.46h0.9v-4.26h-1.01v2.79
		c-0.29,0.27-0.7,0.57-1.04,0.57c-0.52,0-0.65-0.36-0.65-0.71v-2.64h-0.99v2.84c0,0.84,0.66,1.48,1.57,1.48
		C188.67,38.34,189.04,38.08,189.29,37.81 M184.91,36.54c0,0.44-0.38,0.78-1.01,0.78h-1.41v-1.63h1.47
		C184.59,35.68,184.91,36.08,184.91,36.54 M184.93,33.96c0,0.46-0.4,0.83-1.04,0.83l-1.41-0.01v-1.63h1.5
		C184.62,33.13,184.93,33.52,184.93,33.96 M186.03,36.6c0-0.66-0.46-1.3-0.9-1.4v-0.02c0.44-0.2,0.84-0.62,0.84-1.32
		c0-0.92-0.73-1.68-1.9-1.68h-2.68l-0.01,6.09h2.77C185.14,38.27,186.03,37.63,186.03,36.6 M175.58,38.33c0.7,0,1.94-0.25,1.94-1.35
		c0-1.09-1.21-1.28-1.89-1.28c-0.21,0-1.02-0.03-1.02-0.39c0-0.52,0.71-0.51,1.01-0.51c0.54,0,0.97,0.18,1.38,0.5l0.37-0.66
		c-0.44-0.47-0.95-0.7-1.75-0.7c-0.77,0-1.95,0.24-1.95,1.43c0,1.16,1.27,1.25,1.96,1.25c0.23,0,0.9,0.03,0.9,0.37
		c0,0.42-0.74,0.49-0.95,0.49c-0.59,0-0.93-0.15-1.45-0.49l-0.34,0.78C174.42,38.19,174.86,38.33,175.58,38.33 M172.94,37.76
		l-0.34-0.83c-0.39,0.25-0.85,0.36-1.38,0.36c-0.67,0-1.15-0.5-1.15-1.15c0-0.68,0.48-1.24,1.15-1.24c0.64,0,1.15,0.23,1.43,0.44
		l0.33-0.81c-0.46-0.39-1.06-0.59-1.76-0.59c-1.07,0-2.17,0.73-2.17,2.23c0,1.43,1.1,2.17,2.17,2.17
		C171.92,38.34,172.57,38.09,172.94,37.76 M167.14,38.27h1v-4.26h-1V38.27z M168.21,32.8c0-0.36-0.26-0.64-0.59-0.64
		c-0.3,0-0.58,0.28-0.58,0.64c0,0.37,0.28,0.64,0.58,0.64C167.95,33.44,168.21,33.17,168.21,32.8 M166.27,37.56l-0.37-0.69
		c-0.23,0.26-0.58,0.35-0.68,0.35c-0.19,0-0.3-0.03-0.4-0.11c-0.14-0.14-0.23-0.36-0.23-0.62v-1.65h1.4v-0.82h-1.4V32.7l-0.98,0.48
		v0.83h-0.59v0.82h0.59v1.84c0,0.47,0.23,1.02,0.55,1.29c0.29,0.24,0.56,0.31,0.86,0.31C165.43,38.27,165.82,38.03,166.27,37.56
		 M160.65,38.33c0.7,0,1.94-0.25,1.94-1.35c0-1.09-1.21-1.28-1.89-1.28c-0.21,0-1.02-0.03-1.02-0.39c0-0.52,0.71-0.51,1.01-0.51
		c0.53,0,0.96,0.18,1.38,0.5l0.37-0.66c-0.44-0.47-0.95-0.7-1.75-0.7c-0.77,0-1.95,0.24-1.95,1.43c0,1.16,1.27,1.25,1.96,1.25
		c0.23,0,0.9,0.03,0.9,0.37c0,0.42-0.74,0.49-0.95,0.49c-0.59,0-0.93-0.15-1.45-0.49l-0.34,0.78
		C159.49,38.19,159.93,38.33,160.65,38.33 M157.06,38.27h1v-4.26h-1V38.27z M158.13,32.8c0-0.36-0.26-0.64-0.59-0.64
		c-0.3,0-0.58,0.28-0.58,0.64c0,0.37,0.28,0.64,0.58,0.64C157.87,33.44,158.13,33.17,158.13,32.8 M155.12,35.41v1.44
		c-0.24,0.29-0.6,0.5-0.98,0.5c-0.63,0-1.04-0.55-1.04-1.22c0-0.66,0.41-1.21,1.04-1.21C154.52,34.93,154.88,35.11,155.12,35.41
		 M156.12,38.11v-4.09h-1v0.42c-0.33-0.29-0.72-0.49-1.09-0.49c-1,0-1.94,0.82-1.94,2.26c0,1.29,0.96,2.14,1.97,2.14
		c0.38,0,0.75-0.16,1.04-0.42v0.27c0,0.29-0.15,0.49-0.36,0.64c-0.24,0.17-0.57,0.24-0.85,0.24c-0.41,0-0.83-0.13-1.05-0.32
		l-0.33,0.72c0.34,0.32,0.91,0.54,1.44,0.54c0.39,0,0.86-0.09,1.3-0.34C155.75,39.39,156.12,38.83,156.12,38.11 M150.82,36.14
		c0,0.69-0.47,1.19-1.21,1.19c-0.72,0-1.21-0.52-1.21-1.19c0-0.69,0.49-1.22,1.21-1.22C150.35,34.93,150.82,35.46,150.82,36.14
		 M151.84,36.17c0-1.43-1.09-2.22-2.23-2.22c-1.13,0-2.24,0.73-2.24,2.22c0,1.43,1.11,2.17,2.24,2.17
		C150.75,38.34,151.84,37.61,151.84,36.17 M142.83,38.27h4.33v-1.06h-3.21v-5.03h-1.13L142.83,38.27z M139.12,35.2l0.33-1.01
		c-0.29-0.17-0.61-0.25-0.88-0.25c-0.38,0-0.79,0.29-1.05,0.59v-0.51h-1v4.26h1v-2.66c0.23-0.3,0.6-0.67,0.97-0.67
		C138.75,34.95,138.97,35.02,139.12,35.2 M134.62,37.81L134.62,37.81l0.11,0.46h0.89v-4.26h-1.01v2.79
		c-0.29,0.27-0.7,0.57-1.04,0.57c-0.52,0-0.65-0.36-0.65-0.71v-2.64h-0.99v2.84c0,0.84,0.66,1.48,1.57,1.48
		C133.99,38.34,134.36,38.08,134.62,37.81 M130.16,36.14c0,0.69-0.47,1.19-1.21,1.19c-0.72,0-1.21-0.52-1.21-1.19
		c0-0.69,0.49-1.22,1.21-1.22C129.69,34.93,130.16,35.46,130.16,36.14 M131.18,36.17c0-1.43-1.09-2.22-2.23-2.22
		c-1.13,0-2.24,0.73-2.24,2.22c0,1.43,1.11,2.17,2.24,2.17C130.09,38.34,131.18,37.61,131.18,36.17 M125.45,35.97l2.04-3.79h-1.13
		l-1.42,2.77l-1.5-2.77h-1.14l2.02,3.74l0.01,2.35h1.13V35.97z M119.17,38.27l1.37-4.15v-0.1h-0.92l-0.84,2.69l-1.02-2.69h-0.66
		l-1.02,2.57l-0.88-2.57h-0.93v0.1l1.47,4.15h0.71l1-2.82l1.03,2.82H119.17z M113.13,36.14c0,0.69-0.47,1.19-1.21,1.19
		c-0.72,0-1.21-0.52-1.21-1.19c0-0.69,0.49-1.22,1.21-1.22C112.65,34.93,113.13,35.46,113.13,36.14 M114.14,36.17
		c0-1.43-1.09-2.22-2.23-2.22c-1.13,0-2.24,0.73-2.24,2.22c0,1.43,1.11,2.17,2.24,2.17C113.05,38.34,114.14,37.61,114.14,36.17
		 M109.16,35.2l0.33-1.01c-0.29-0.17-0.61-0.25-0.88-0.25c-0.38,0-0.79,0.29-1.05,0.59v-0.51h-1v4.26h1v-2.66
		c0.23-0.3,0.6-0.67,0.97-0.67C108.79,34.95,109.01,35.02,109.16,35.2 M105.5,37.28v-2.42h-2.67l-0.01,0.94h1.69v0.87
		c-0.39,0.35-1.01,0.6-1.6,0.6c-0.97,0-1.75-0.82-1.75-2.09c0-1.27,0.74-2.03,1.75-2.03c0.46,0,0.86,0.08,1.14,0.21
		c0.24,0.1,0.8,0.42,0.96,0.56l0.47-0.81c-0.13-0.17-0.74-0.63-1.24-0.82c-0.51-0.17-1.07-0.21-1.33-0.21
		c-1.32,0-2.81,1.03-2.81,3.12c0,2.07,1.46,3.16,2.8,3.16c0.66,0,1.25-0.21,1.68-0.43C105.03,37.7,105.36,37.45,105.5,37.28
		 M96.85,36.14c0,0.69-0.47,1.19-1.21,1.19c-0.72,0-1.21-0.52-1.21-1.19c0-0.69,0.49-1.22,1.21-1.22
		C96.37,34.93,96.85,35.46,96.85,36.14 M97.86,36.17c0-1.43-1.09-2.22-2.23-2.22c-1.13,0-2.24,0.73-2.24,2.22
		c0,1.43,1.11,2.17,2.24,2.17C96.78,38.34,97.86,37.61,97.86,36.17 M92.02,33.18h2.09v-1h-5.32v1h2.09l0.01,5.09h1.13V33.18z
		 M84.63,38.33c0.7,0,1.94-0.25,1.94-1.35c0-1.09-1.21-1.28-1.9-1.28c-0.21,0-1.02-0.03-1.02-0.39c0-0.52,0.71-0.51,1.01-0.51
		c0.54,0,0.97,0.18,1.38,0.5l0.37-0.66c-0.44-0.47-0.95-0.7-1.75-0.7c-0.77,0-1.95,0.24-1.95,1.43c0,1.16,1.27,1.25,1.96,1.25
		c0.23,0,0.9,0.03,0.9,0.37c0,0.42-0.74,0.49-0.95,0.49c-0.59,0-0.93-0.15-1.45-0.49l-0.34,0.78
		C83.46,38.19,83.91,38.33,84.63,38.33 M79.47,34.52v-0.5h-1v4.26h1v-2.75c0.29-0.27,0.69-0.6,1.07-0.6c0.51,0,0.68,0.38,0.68,0.74
		v2.61h0.99v-2.83c0-0.85-0.69-1.49-1.61-1.49C80.07,33.95,79.71,34.25,79.47,34.52 M76.87,36.14c0,0.69-0.47,1.19-1.21,1.19
		c-0.72,0-1.21-0.52-1.21-1.19c0-0.69,0.49-1.22,1.21-1.22C76.4,34.93,76.87,35.46,76.87,36.14 M77.89,36.17
		c0-1.43-1.09-2.22-2.23-2.22c-1.13,0-2.24,0.73-2.24,2.22c0,1.43,1.11,2.17,2.24,2.17C76.8,38.34,77.89,37.61,77.89,36.17
		 M71.59,38.27h1v-4.26h-1V38.27z M72.67,32.8c0-0.36-0.26-0.64-0.59-0.64c-0.3,0-0.58,0.28-0.58,0.64c0,0.37,0.28,0.64,0.58,0.64
		C72.41,33.44,72.67,33.17,72.67,32.8 M70.72,37.56l-0.37-0.69c-0.23,0.26-0.58,0.35-0.68,0.35c-0.18,0-0.3-0.03-0.39-0.11
		c-0.14-0.14-0.23-0.36-0.23-0.62v-1.65h1.4v-0.82h-1.4V32.7l-0.98,0.48v0.83h-0.59v0.82h0.59v1.84c0,0.47,0.23,1.02,0.55,1.29
		c0.29,0.24,0.56,0.31,0.86,0.31C69.89,38.27,70.27,38.03,70.72,37.56 M65.99,37.81L65.99,37.81l0.11,0.46h0.89v-4.26h-1.01v2.79
		c-0.29,0.27-0.7,0.57-1.04,0.57c-0.52,0-0.65-0.36-0.65-0.71v-2.64H63.3v2.84c0,0.84,0.66,1.48,1.57,1.48
		C65.36,38.34,65.73,38.08,65.99,37.81 M61.19,38.27h1V31.6h-1V38.27z M59.46,36.14c0,0.69-0.47,1.19-1.21,1.19
		c-0.72,0-1.21-0.52-1.21-1.19c0-0.69,0.49-1.22,1.21-1.22C58.99,34.93,59.46,35.46,59.46,36.14 M60.48,36.17
		c0-1.43-1.09-2.22-2.23-2.22c-1.13,0-2.24,0.73-2.24,2.22c0,1.43,1.11,2.17,2.24,2.17C59.39,38.34,60.48,37.61,60.48,36.17
		 M55.37,36.41c0-1.58-1.37-1.79-2.36-1.89c-0.36-0.04-1.45-0.06-1.45-0.68c0-0.36,0.33-0.78,1.34-0.78c0.63,0,1.36,0.22,1.98,0.63
		l0.32-0.89c-0.72-0.52-1.47-0.77-2.31-0.77c-0.93,0-2.44,0.34-2.44,1.87c0,1.41,1.19,1.61,2.23,1.74c0.85,0.1,1.56,0.23,1.56,0.78
		c0,0.68-0.89,0.9-1.49,0.9c-0.49,0-1.07-0.28-1.88-0.76l-0.35,0.97c0.85,0.58,1.43,0.83,2.32,0.83
		C53.85,38.36,55.37,37.96,55.37,36.41"/>
</g>
<g>
	<polygon class="st3" points="31.74,27.86 38.97,25.24 46.26,27.88 43.77,28.75 38.97,27.01 34.17,28.75 	"/>
	<polygon class="st4" points="3.7,39.01 10.74,41.42 24.9,36.28 38.99,41.4 46.27,38.91 24.9,31.23 	"/>
	<polygon class="st5" points="38.97,27.7 33.87,29.55 38.97,31.41 	"/>
	<polygon class="st5" points="24.9,1 3.7,8.69 3.7,39.01 24.9,31.23 24.9,26.3 10.73,31.44 10.73,11.38 24.9,6.24 	"/>
	<polygon class="st6" points="17.63,13.64 17.64,28.94 10.73,31.44 10.73,11.38 	"/>
	<polygon class="st4" points="31.74,15.59 38.97,13.25 46.26,15.84 38.97,17.79 	"/>
	<polygon class="st5" points="31.74,13.5 31.74,15.62 38.97,13.25 38.97,11.34 	"/>
	<polygon class="st6" points="24.9,1.04 24.9,6.28 38.97,11.34 38.97,13.25 46.26,15.88 46.26,8.78 	"/>
	<polygon class="st4" points="10.73,11.38 24.9,6.24 38.97,11.34 31.76,13.51 24.9,11.02 17.64,13.64 	"/>
	<polygon class="st7" points="31.74,16.91 34.17,16.03 34.17,25.25 36.53,24.4 36.53,20.5 38.97,19.62 38.97,25.24 31.74,27.86 	"/>
	<polygon class="st8" points="34.17,25.26 36.53,24.41 36.53,16.89 34.17,16.03 	"/>
	<polygon class="st8" points="38.97,19.64 41.42,20.53 41.42,24.41 43.77,25.26 43.77,15.97 46.26,16.82 46.26,27.88 38.97,25.24 	
		"/>
	<polygon class="st7" points="43.77,25.25 43.77,16.03 41.42,16.88 41.42,24.4 	"/>
	<path class="st6" d="M38.98,27.69"/>
	<path class="st6" d="M38.97,27.81"/>
	<path class="st9" d="M38.97,27.81"/>
	<polygon class="st6" points="38.98,27.69 38.97,31.41 24.9,26.3 24.9,31.23 46.27,38.91 46.26,30.34 	"/>
</g>
</svg>
