<?xml version="1.0" encoding="utf-8"?>
<!-- Generator: Adobe Illustrator 25.4.1, SVG Export Plug-In . SVG Version: 6.00 Build 0)  -->
<svg version="1.1" id="Layer_1" xmlns="http://www.w3.org/2000/svg" xmlns:xlink="http://www.w3.org/1999/xlink" x="0px" y="0px"
	 viewBox="0 0 24 24" style="enable-background:new 0 0 24 24;" xml:space="preserve">
<style type="text/css">
	.st0{fill:#231F20;}
</style>
<path class="st0" d="M21.78,4.96l-9.79-3.21L2.21,4.96l9.79,3.21L21.78,4.96z M12.12,1.06l10.89,3.57L22.9,4.96l0.11-0.33
	c0.18,0.06,0.29,0.26,0.22,0.44c-0.04,0.12-0.13,0.2-0.25,0.23L12.1,8.88l0,0c-0.08,0.03-0.17,0.02-0.24-0.01L0.97,5.3l0.11-0.33
	L0.97,5.3C0.78,5.24,0.68,5.04,0.74,4.85c0.04-0.12,0.13-0.2,0.25-0.23l10.89-3.57l0,0C11.96,1.02,12.05,1.03,12.12,1.06z"/>
<path class="st0" d="M15.86,6.9l2.4-0.79l-9.21-3.4l-2.4,0.79L15.86,6.9z M19.42,6.48l-3.45,1.13l0,0
	c-0.08,0.03-0.17,0.02-0.25-0.01L5.46,3.82l0.12-0.33L5.46,3.82C5.28,3.75,5.18,3.55,5.25,3.36c0.04-0.11,0.13-0.19,0.24-0.22
	l3.45-1.13l0,0c0.08-0.03,0.17-0.02,0.25,0.01l10.26,3.78l-0.12,0.33l0.12-0.33c0.18,0.07,0.28,0.27,0.21,0.45
	C19.62,6.37,19.53,6.45,19.42,6.48z"/>
<path class="st0" d="M1.19,18.71c-0.18-0.06-0.38,0.03-0.45,0.22c-0.06,0.18,0.03,0.38,0.22,0.45l10.91,3.74l0,0
	c0.08,0.03,0.17,0.02,0.24,0l10.9-3.74c0.18-0.06,0.28-0.26,0.22-0.45c-0.06-0.18-0.26-0.28-0.45-0.22l-10.8,3.71L1.19,18.71z"/>
<path class="st0" d="M23.26,4.96c0-0.19-0.16-0.35-0.35-0.35c-0.19,0-0.35,0.16-0.35,0.35v14.08c0,0.19,0.16,0.35,0.35,0.35
	c0.19,0,0.35-0.16,0.35-0.35V4.96z"/>
<path class="st0" d="M1.43,4.96c0-0.19-0.16-0.35-0.35-0.35S0.73,4.77,0.73,4.96v14.08c0,0.19,0.16,0.35,0.35,0.35
	s0.35-0.16,0.35-0.35V4.96z"/>
<path class="st0" d="M12.34,8.54c0-0.19-0.16-0.35-0.35-0.35c-0.19,0-0.35,0.16-0.35,0.35v14.24c0,0.19,0.16,0.35,0.35,0.35
	c0.19,0,0.35-0.16,0.35-0.35V8.54z"/>
<path class="st0" d="M18.98,6.62l-2.77,0.91v2.72l2.77-0.97V6.62z M15.77,6.94l3.45-1.13l0,0c0.18-0.06,0.38,0.04,0.44,0.22
	c0.01,0.04,0.02,0.08,0.02,0.12v3.39c0,0.16-0.11,0.3-0.26,0.34l-3.45,1.2l0,0c-0.18,0.06-0.38-0.03-0.45-0.22
	c-0.01-0.04-0.02-0.08-0.02-0.12V7.28C15.5,7.11,15.62,6.97,15.77,6.94z"/>
</svg>
