<?xml version="1.0" encoding="utf-8"?>
<!-- Generator: Adobe Illustrator 25.4.1, SVG Export Plug-In . SVG Version: 6.00 Build 0)  -->
<svg version="1.1" id="Layer_1" xmlns="http://www.w3.org/2000/svg" xmlns:xlink="http://www.w3.org/1999/xlink" x="0px" y="0px"
	 viewBox="0 0 24 24" style="enable-background:new 0 0 24 24;" xml:space="preserve">
<style type="text/css">
	.st0{fill:#61973F;}
	.st1{fill:#2F407B;}
	.st2{fill:#305095;}
	.st3{fill:#00A9DF;}
	.st4{fill:#C1D82F;}
	.st5{fill:#80B641;}
</style>
<polygon class="st0" points="15.85,15.55 17.06,15.98 19.66,15.04 22.28,15.9 23.65,15.39 19.66,14.05 "/>
<polygon class="st1" points="0.4,21.55 4.25,22.83 12.02,20.2 19.83,22.84 23.64,21.43 12.02,17.61 "/>
<polygon class="st2" points="12.01,17.61 23.64,21.43 23.64,16.74 19.65,15.4 19.66,17.47 12.01,14.84 "/>
<polygon class="st3" points="16.51,16.4 19.66,15.42 19.67,17.48 "/>
<polygon class="st3" points="12.03,0.98 0.4,4.96 0.4,21.55 12.02,17.61 12.02,14.86 4.22,17.44 4.22,6.36 12.03,3.71 "/>
<polygon class="st2" points="8.08,7.77 8.08,16.15 4.22,17.44 4.22,6.35 "/>
<polygon class="st1" points="15.85,8.89 19.66,10.08 23.65,8.89 19.66,7.57 "/>
<polygon class="st3" points="15.85,7.77 15.85,8.89 19.66,7.57 19.66,6.35 "/>
<polygon class="st2" points="12.03,0.98 12.03,3.71 19.66,6.35 19.66,7.57 23.65,8.89 23.65,4.96 "/>
<polygon class="st1" points="4.22,6.35 12.03,3.71 19.66,6.35 15.85,7.77 12.03,6.35 8.08,7.77 "/>
<polygon class="st4" points="15.85,9.52 17.06,9 17.06,14.05 18.32,13.54 18.32,11.42 19.66,11.01 19.66,14.05 15.85,15.55 "/>
<polygon class="st5" points="17.06,14.05 18.32,13.54 18.32,9.52 17.06,9 "/>
<polygon class="st5" points="22.29,14.05 21,13.54 21,11.5 19.66,11.01 19.66,14.05 23.65,15.39 23.65,9.52 22.29,9 "/>
<polygon class="st4" points="22.29,14.05 22.29,9 21,9.52 21,13.64 "/>
</svg>
